<?xml version="1.0" encoding="UTF-8" standalone="no"?>
<svg
   id="Layer_1"
   data-name="Layer 1"
   viewBox="0 0 74 68"
   version="1.1"
   sodipodi:docname="spade.svg"
   width="74"
   height="68"
   inkscape:version="1.1.2 (0a00cf5339, 2022-02-04)"
   xmlns:inkscape="http://www.inkscape.org/namespaces/inkscape"
   xmlns:sodipodi="http://sodipodi.sourceforge.net/DTD/sodipodi-0.dtd"
   xmlns="http://www.w3.org/2000/svg"
   xmlns:svg="http://www.w3.org/2000/svg"
   xmlns:rdf="http://www.w3.org/1999/02/22-rdf-syntax-ns#"
   xmlns:cc="http://creativecommons.org/ns#"
   xmlns:dc="http://purl.org/dc/elements/1.1/">
  <sodipodi:namedview
     id="namedview120"
     pagecolor="#ffffff"
     bordercolor="#666666"
     borderopacity="1.0"
     inkscape:pageshadow="2"
     inkscape:pageopacity="0.0"
     inkscape:pagecheckerboard="0"
     showgrid="false"
     inkscape:zoom="3.095251"
     inkscape:cx="78.991977"
     inkscape:cy="68.976634"
     inkscape:window-width="1920"
     inkscape:window-height="1059"
     inkscape:window-x="0"
     inkscape:window-y="0"
     inkscape:window-maximized="1"
     inkscape:current-layer="Layer_1"
     width="551.48999px">
    <inkscape:grid
       type="xygrid"
       id="grid1379" />
  </sodipodi:namedview>
  <defs
     id="defs105">
    <style
       id="style103">.cls-1{fill:#12abdb;}.cls-2{fill:#0070ad;}</style>
  </defs>
  <title
     id="title107">Capgemini_Logo_2COL_RGB</title>
  <path
     class="cls-1"
     d="m 57.095524,55.282729 a 16,16 0 0 0 16,-15.94 c -0.67,-3.79 -1.99,-10.79 -11.8,-10.79 -10.71,0 -14.27,15 -23,24.63 -0.7,5.49 -5.9,10.41 -12.39,11.24 1.59,1.66 5.13,2.56 9.35,2.56 7.72,0 17.08,-2.33 22,-7.16 -6.53,0.08 -10.73,-4.11 -11.15,-9.93 a 13.44,13.44 0 0 0 10.99,5.39 z"
     id="path109" />
  <path
     class="cls-2"
     d="m 73.025524,38.712729 c -0.19,-10 -5,-18.53 -12.35,-25.3 a 66.43,66.43 0 0 0 -19.23,-11.9200002 l -1.69,-0.68999999 v 0 C 31.175524,11.092729 1.4355242,18.802729 1.4355242,40.332729 a 21.29,21.29 0 0 0 13.1499998,19.48 19.66,19.66 0 0 0 13.6,0.28 23.62,23.62 0 0 0 10.11,-6.88 c 8.73,-9.66 12.29,-24.66 23,-24.66 9.8,0 11.12,7 11.75,10.76 0,0.02 0,-0.24 -0.02,-0.6 z"
     id="path117" />
  <metadata
     id="metadata1381">
    <rdf:RDF>
      <cc:Work
         rdf:about="">
        <dc:title>Capgemini_Logo_2COL_RGB</dc:title>
      </cc:Work>
    </rdf:RDF>
  </metadata>
</svg>
